<?xml version="1.0" encoding="UTF-8" standalone="no"?>
<svg
   xmlns:dc="http://purl.org/dc/elements/1.1/"
   xmlns:cc="http://creativecommons.org/ns#"
   xmlns:rdf="http://www.w3.org/1999/02/22-rdf-syntax-ns#"
   xmlns:svg="http://www.w3.org/2000/svg"
   xmlns="http://www.w3.org/2000/svg"
   xmlns:sodipodi="http://sodipodi.sourceforge.net/DTD/sodipodi-0.dtd"
   xmlns:inkscape="http://www.inkscape.org/namespaces/inkscape"
   version="1.1"
   id="Layer_1"
   x="0px"
   y="0px"
   viewBox="0 0 650.40002 290.23291"
   xml:space="preserve"
   sodipodi:docname="Limitless_Logo_Vector_Bevel (1).svg"
   width="650.40002"
   height="290.23291"
   inkscape:version="1.0.1 (3bc2e813f5, 2020-09-07)"><metadata
   id="metadata1299"><rdf:RDF><cc:Work
       rdf:about=""><dc:format>image/svg+xml</dc:format><dc:type
         rdf:resource="http://purl.org/dc/dcmitype/StillImage" /><dc:title></dc:title></cc:Work></rdf:RDF></metadata><defs
   id="defs1297" /><sodipodi:namedview
   pagecolor="#ffffff"
   bordercolor="#666666"
   borderopacity="1"
   objecttolerance="10"
   gridtolerance="10"
   guidetolerance="10"
   inkscape:pageopacity="0"
   inkscape:pageshadow="2"
   inkscape:window-width="1779"
   inkscape:window-height="901"
   id="namedview1295"
   showgrid="false"
   fit-margin-top="0"
   fit-margin-left="0"
   fit-margin-right="0"
   fit-margin-bottom="0"
   inkscape:zoom="0.54270833"
   inkscape:cx="324.4"
   inkscape:cy="144.52367"
   inkscape:window-x="278"
   inkscape:window-y="156"
   inkscape:window-maximized="0"
   inkscape:current-layer="Layer_1" />
<style
   type="text/css"
   id="style868">
	.st0{fill:#E3E2E2;}
	.st1{fill:#161616;}
	.st2{fill:#9E1C29;}
	.st3{enable-background:new    ;}
	.st4{fill:#1E1E1E;}
	.st5{fill:#3A3A3A;}
	.st6{fill:#A9A8A8;}
	.st7{fill:#D1D0D0;}
	.st8{fill:#292929;}
	.st9{fill:#3A3939;}
	.st10{fill:#393939;}
	.st11{fill:#8A8A8A;}
	.st12{fill:#272727;}
	.st13{opacity:6.000000e-02;fill:#FFFFFF;}
</style>
<path
   class="st0"
   d="m 626.2,177.32367 24.2,16.6 h -0.1 c -42.7,0 -104.5,0 -104.5,0 v 0 c 0,0 -2.9,6.4 -2.9,6.5 -8.9,21.3 -43.7,56.8 -104.1,57.4 -6.8,0.1 -39.8,-1 -65,-21.1 -6.6,-5.2 -23.9,-20.7 -23.9,-20.7 v 0 c 0,0 -9.8,14.5 -12.5,18.2 -3.7,5.3 -14.3,20.3 -30.4,32.2 -18.3,13.5 -36.5,17.5 -48.3,20.2 -3,0.7 -17.7,3.8 -37.6,3.6 -12.2,-0.2 -27.6,-0.3 -46,-6.8 -5.6,-2 -26.4,-9.7 -45.9,-29.2 0,0 -21.3,-21.3 -30.3,-48.2 -0.2,-0.5 -4.1,-12.1 -4.1,-12.1 v 0 c 0,0 -52.1,0 -52.1,0 v 0 c 0,0 -8.7,-1.4 -13.3,-6.5 -4.3,-4.7 -5.2,-12.7 -5.2,-12.7 v 0 c 0,0 0,-70.7 0,-70.7 v 0 c 0,0 -24.2,-20.200003 -24.2,-20.200003 v 0 c 0,0 89.5,0 89.5,0 v 0 c 0,0 6.7,-13.9 7,-14.4 3.9,-8 19.5,-31.2 47.3,-48.4 33.3,-20.59999961 66,-21.19999961 77.3,-20.99999961 4,0.1 41.2,1.40000001 76.3,24.39999961 21.5,14.1 37.2,33.1 40.5,37.5 0.1,0.2 7.9,10.6 7.9,10.6 v 0 c 0,0 7.5,-8.1 8.8,-9.5 8.5,-9 20.2,-15.3 24.1,-17.3 24.8,-13.2 53,-13.2 57.6,-13.2 2.1,0 40.6,0.8 66,19.6 9.6,7.1 18.3,17.6 20.9,23.5 0.3,0.6 3.5,8.2 3.5,8.1 v 0 c 0,0 80.9,0 80.9,0 v 0 c 0,0 8.5,1.1 13.1,6 4.3,4.6 5.2,12.400003 5.2,12.400003 v 0 c 0.3,0.1 0.3,26.3 0.3,75.2 z"
   id="path870" />
<path
   class="st1"
   d="m 424.4,183.52367 c 0,0 10.4,4.8 23.6,2.8 1.1,-0.2 7,-1.1 12.7,-4 12.8,-6.5 24.7,-22.7 23.8,-40.2 -1.3,-25.4 -27.6,-42.700003 -48.4,-42.200003 -18.1,0.500003 -31.9,14.300003 -41,23.400003 -6.2,6.2 -10.1,11.8 -14.8,19.1 -19.3,29.7 -26,46.2 -36.3,63.3 -9.3,15.4 -20.2,33.6 -39.5,48.4 -41.2,31.6 -91.2,25.4 -96.9,24.6 -11.5,-1.6 -43.9,-6.6 -71.1,-34 -4.9,-4.9 -25.8,-26.8 -32,-61.7 -1.2,-6.7 -3.5,-20.3 -0.4,-37.5 1.2,-6.8 6.1,-31.4 27,-52.000003 0,0 37.3,-36.7 92.8,-25.1 10.3,2.2 14.8,4.3 14.8,4.3 l 12.4,5.5 c 0,0 -7.9,-3.2 -15.2,-5 -20.1,-4.9 -37.2,0.5 -37.2,0.5 -2.9,0.9 -15.3,5.1 -26.6,16.7 -11.7,12.000003 -15.6,24.900003 -17.2,30.500003 -1.9,6.5 -8.3,28.9 2.6,50.5 15.1,29.9 51.7,34.7 60,35.5 36.5,3.5 63.7,-19 69.1,-23.4 24.2,-19.9 18.8,-34.9 60.2,-91.400003 17.5,-24 27.2,-30.6 30.5,-32.8 25.1,-16.6 51.7,-16 60.6,-15.6 12.6,0.5 53.5,2 73.8,33.2 9.8,15 10.4,30.100003 10.5,35.900003 0.8,27.9 -14.5,56.8 -39.1,69.1 -11.4,5.7 -22.6,6.8 -27.3,7 -18.4,1 -31.4,-5.4 -31.4,-5.4 z"
   id="path872" />
<path
   class="st2"
   d="m 216.7,9.8236674 c 72.5,-0.1 113.9,59.3999996 118.2,65.4999996 14.3,20.3 29.6,45.300003 29.6,45.300003 10.7,17.4 18.3,31.2 33.8,47.4 7.9,8.3 11.9,12.4 17.4,15.9 20.2,12.5 52.9,14.6 78.5,-2.7 28.1,-19 34.9,-52.8 31,-77 -2.3,-14.000003 -8.1,-24.600003 -12.3,-30.800003 4.3,4.9 9.8,12.1 14.8,21.5 11.1,20.700003 16.1,50.100003 16.1,53.700003 0,75.4 -61.8,98.3 -101.4,98.4 -39.2,0.1 -57.3,-12.5 -88.9,-43.1 -14.5,-14.1 -27.4,-37.8 -40.7,-58.8 -13.6,-21.4 -12.1,-22 -18.8,-31.2 -8,-11 -45.2,-50.600003 -85,-50.600003 -35,0 -58.6,7.8 -85,31.3 C 95.7,119.82367 97.8,189.92367 97.8,189.92367 63.1,51.123667 169.4,9.9236674 216.7,9.8236674 Z"
   id="path874" />
<path
   class="st1"
   d="m 616.4,103.42367 c 0,-4.700003 -3.8,-8.600003 -8.6,-8.600003 H 403.4 c -4.8,0 -8.6,3.9 -8.6,8.600003 v 43.1 H 367 v -43.2 c 0,-4.700003 -3.8,-8.500003 -8.5,-8.500003 H 109.6 c -4.7,0 -8.5,3.8 -8.5,8.500003 v 43.2 h -28 v -43.2 c 0,-4.700003 -3.8,-8.500003 -8.5,-8.500003 H 44.4 c -4.7,0 -8.5,3.8 -8.5,8.500003 v 71.2 c 0,4.7 3.8,8.5 8.5,8.5 h 109.8 c 4.7,0 8.5,-3.8 8.5,-8.5 v -43.3 h 2.3 v 43.3 c 0,4.7 3.8,8.5 8.5,8.5 h 19.8 c 4.7,0 8.5,-3.8 8.5,-8.5 v -43.3 h 2.3 v 43.3 c 0,4.7 3.8,8.5 8.5,8.5 h 45 c 4.7,0 8.5,-3.8 8.5,-8.5 v -43.3 h 12 v 43.3 c 0,4.7 3.8,8.5 8.5,8.5 h 20.8 c 4.7,0 8.5,-3.8 8.5,-8.5 v -43.3 h 14 v 43.3 c 0,4.7 3.8,8.6 8.6,8.6 h 269.3 c 4.7,0 8.6,-3.8 8.6,-8.6 v -19.2 c 0,-3.1 -1.3,-6 -3.5,-8.1 l -16.6,-16 h 11.6 c 4.7,0 8.5,-3.8 8.5,-8.5 z m -184.7,39.8 v -12.1 h 7.6 z m 38.7,3.4 8.2,-12.5 14,12.5 z m 73.8,0 -14.6,-15.4 h 13 l 15.6,15.4 z"
   id="path876" />
<g
   id="g1290"
   transform="translate(-635.6,-395.47633)">
	<g
   id="g1288">
		<g
   class="st3"
   id="g914">
			<g
   id="g880">
				<polygon
   class="st4"
   points="741.4,549.8 741.4,549.8 701.1,549.8 "
   id="polygon878" />
			</g>
			<g
   id="g884">
				<polygon
   class="st4"
   points="701.1,498 701.1,498 679.2,498 "
   id="polygon882" />
			</g>
			<g
   id="g888">
				<polygon
   class="st5"
   points="679.2,570.8 683.2,566.8 737.4,566.8 741.4,570.8 "
   id="polygon886" />
			</g>
			<g
   id="g892">
				<polygon
   class="st6"
   points="741.4,549.8 737.4,553.8 697.1,553.8 701.1,549.8 "
   id="polygon890" />
			</g>
			<g
   id="g896">
				<polygon
   class="st7"
   points="741.4,570.8 737.4,566.8 737.4,553.8 741.4,549.8 "
   id="polygon894" />
			</g>
			<g
   id="g900">
				<polygon
   class="st6"
   points="701.1,498 697.1,502 683.2,502 679.2,498 "
   id="polygon898" />
			</g>
			<g
   id="g904">
				<polygon
   class="st7"
   points="701.1,549.8 697.1,553.8 697.1,502 701.1,498 "
   id="polygon902" />
			</g>
			<g
   id="g908">
				<polygon
   class="st0"
   points="737.4,553.8 737.4,566.8 683.2,566.8 683.2,502 697.1,502 697.1,553.8 "
   id="polygon906" />
			</g>
			<g
   id="g912">
				<polygon
   class="st8"
   points="679.2,498 683.2,502 683.2,566.8 679.2,570.8 "
   id="polygon910" />
			</g>
		</g>
		<g
   class="st3"
   id="g944">
			<g
   id="g918">
				<polygon
   class="st4"
   points="766.2,498 766.2,498 744.3,498 "
   id="polygon916" />
			</g>
			<g
   id="g922">
				<polygon
   class="st5"
   points="754.7,570.9 754.7,566.9 762.2,566.9 766.2,570.9 "
   id="polygon920" />
			</g>
			<g
   id="g926">
				<polygon
   class="st9"
   points="744.3,570.8 748.3,566.8 754.7,566.9 754.7,570.9 "
   id="polygon924" />
			</g>
			<g
   id="g930">
				<polygon
   class="st8"
   points="744.3,498 748.3,502 748.3,566.8 744.3,570.8 "
   id="polygon928" />
			</g>
			<g
   id="g934">
				<polygon
   class="st6"
   points="766.2,498 762.2,502 748.3,502 744.3,498 "
   id="polygon932" />
			</g>
			<g
   id="g938">
				<polygon
   class="st7"
   points="766.2,570.9 762.2,566.9 762.2,502 766.2,498 "
   id="polygon936" />
			</g>
			<g
   id="g942">
				<polygon
   class="st0"
   points="754.7,566.9 748.3,566.8 748.3,502 762.2,502 762.2,566.9 "
   id="polygon940" />
			</g>
		</g>
		<g
   class="st3"
   id="g1002">
			<g
   id="g948">
				<polygon
   class="st4"
   points="869.2,498 869.2,498 768.3,498 "
   id="polygon946" />
			</g>
			<g
   id="g952">
				<polygon
   class="st5"
   points="847.3,570.8 851.3,566.8 865.2,566.8 869.2,570.8 "
   id="polygon950" />
			</g>
			<g
   id="g956">
				<polygon
   class="st5"
   points="808.1,570.8 812.1,566.8 825.7,566.8 829.7,570.8 "
   id="polygon954" />
			</g>
			<g
   id="g960">
				<polygon
   class="st5"
   points="768.3,570.8 772.3,566.8 786.5,566.8 790.5,570.8 "
   id="polygon958" />
			</g>
			<g
   id="g964">
				<polygon
   class="st7"
   points="829.7,570.8 825.7,566.8 825.7,515.1 829.7,519.1 "
   id="polygon962" />
			</g>
			<g
   id="g968">
				<polygon
   class="st5"
   points="829.7,519.1 825.7,515.1 851.3,515.1 847.3,519.1 "
   id="polygon966" />
			</g>
			<g
   id="g972">
				<polygon
   class="st8"
   points="847.3,519.1 851.3,515.1 851.3,566.8 847.3,570.8 "
   id="polygon970" />
			</g>
			<g
   id="g976">
				<polygon
   class="st8"
   points="808.1,519.1 812.1,515.1 812.1,566.8 808.1,570.8 "
   id="polygon974" />
			</g>
			<g
   id="g980">
				<polygon
   class="st5"
   points="790.5,519.1 786.5,515.1 812.1,515.1 808.1,519.1 "
   id="polygon978" />
			</g>
			<g
   id="g984">
				<polygon
   class="st7"
   points="790.5,570.8 786.5,566.8 786.5,515.1 790.5,519.1 "
   id="polygon982" />
			</g>
			<g
   id="g988">
				<polygon
   class="st8"
   points="768.3,498 772.3,502 772.3,566.8 768.3,570.8 "
   id="polygon986" />
			</g>
			<g
   id="g992">
				<polygon
   class="st6"
   points="869.2,498 865.2,502 772.3,502 768.3,498 "
   id="polygon990" />
			</g>
			<g
   id="g996">
				<polygon
   class="st0"
   points="851.3,566.8 851.3,515.1 825.7,515.1 825.7,566.8 812.1,566.8 812.1,515.1 786.5,515.1 786.5,566.8 772.3,566.8 772.3,502 865.2,502 865.2,566.8 "
   id="polygon994" />
			</g>
			<g
   id="g1000">
				<polygon
   class="st7"
   points="869.2,570.8 865.2,566.8 865.2,502 869.2,498 "
   id="polygon998" />
			</g>
		</g>
		<g
   class="st3"
   id="g1028">
			<g
   id="g1006">
				<polygon
   class="st4"
   points="894.1,498 894.1,498 871.9,498 "
   id="polygon1004" />
			</g>
			<g
   id="g1010">
				<polygon
   class="st5"
   points="871.9,570.8 875.9,566.8 890.1,566.8 894.1,570.8 "
   id="polygon1008" />
			</g>
			<g
   id="g1014">
				<polygon
   class="st8"
   points="871.9,498 875.9,502 875.9,566.8 871.9,570.8 "
   id="polygon1012" />
			</g>
			<g
   id="g1018">
				<polygon
   class="st6"
   points="894.1,498 890.1,502 875.9,502 871.9,498 "
   id="polygon1016" />
			</g>
			<g
   id="g1022">
				<polygon
   class="st7"
   points="894.1,570.8 890.1,566.8 890.1,502 894.1,498 "
   id="polygon1020" />
			</g>
			<g
   id="g1026">
				<rect
   x="875.90002"
   y="502"
   class="st0"
   width="14.2"
   height="64.900002"
   id="rect1024" />
			</g>
		</g>
		<g
   class="st3"
   id="g1070">
			<g
   id="g1032">
				<polygon
   class="st4"
   points="969.3,498 969.3,498 896.5,498 "
   id="polygon1030" />
			</g>
			<g
   id="g1036">
				<polygon
   class="st5"
   points="921.5,570.8 925.5,566.8 940,566.8 944,570.8 "
   id="polygon1034" />
			</g>
			<g
   id="g1040">
				<polygon
   class="st7"
   points="944,570.8 940,566.8 940,514.9 944,518.9 "
   id="polygon1038" />
			</g>
			<g
   id="g1044">
				<polygon
   class="st5"
   points="944,518.9 940,514.9 965.3,514.9 969.3,518.9 "
   id="polygon1042" />
			</g>
			<g
   id="g1048">
				<polygon
   class="st5"
   points="896.5,518.9 900.5,514.9 925.5,514.9 921.5,518.9 "
   id="polygon1046" />
			</g>
			<g
   id="g1052">
				<polygon
   class="st8"
   points="921.5,518.9 925.5,514.9 925.5,566.8 921.5,570.8 "
   id="polygon1050" />
			</g>
			<g
   id="g1056">
				<polygon
   class="st8"
   points="896.5,498 900.5,502 900.5,514.9 896.5,518.9 "
   id="polygon1054" />
			</g>
			<g
   id="g1060">
				<polygon
   class="st6"
   points="969.3,498 965.3,502 900.5,502 896.5,498 "
   id="polygon1058" />
			</g>
			<g
   id="g1064">
				<polygon
   class="st0"
   points="940,514.9 940,566.8 925.5,566.8 925.5,514.9 900.5,514.9 900.5,502 965.3,502 965.3,514.9 "
   id="polygon1062" />
			</g>
			<g
   id="g1068">
				<polygon
   class="st7"
   points="969.3,518.9 965.3,514.9 965.3,502 969.3,498 "
   id="polygon1066" />
			</g>
		</g>
		<g
   class="st3"
   id="g1108">
			<g
   id="g1074">
				<polygon
   class="st4"
   points="1035.3,549.8 1035.3,549.8 994.9,549.8 "
   id="polygon1072" />
			</g>
			<g
   id="g1078">
				<polygon
   class="st4"
   points="994.9,498 994.9,498 973,498 "
   id="polygon1076" />
			</g>
			<g
   id="g1082">
				<polygon
   class="st5"
   points="973,570.8 977,566.8 1031.3,566.8 1035.3,570.8 "
   id="polygon1080" />
			</g>
			<g
   id="g1086">
				<polygon
   class="st6"
   points="1035.3,549.8 1031.3,553.8 990.9,553.8 994.9,549.8 "
   id="polygon1084" />
			</g>
			<g
   id="g1090">
				<polygon
   class="st7"
   points="1035.3,570.8 1031.3,566.8 1031.3,553.8 1035.3,549.8 "
   id="polygon1088" />
			</g>
			<g
   id="g1094">
				<polygon
   class="st6"
   points="994.9,498 990.9,502 977,502 973,498 "
   id="polygon1092" />
			</g>
			<g
   id="g1098">
				<polygon
   class="st7"
   points="994.9,549.8 990.9,553.8 990.9,502 994.9,498 "
   id="polygon1096" />
			</g>
			<g
   id="g1102">
				<polygon
   class="st0"
   points="1031.3,553.8 1031.3,566.8 977,566.8 977,502 990.9,502 990.9,553.8 "
   id="polygon1100" />
			</g>
			<g
   id="g1106">
				<polygon
   class="st8"
   points="973,498 977,502 977,566.8 973,570.8 "
   id="polygon1104" />
			</g>
		</g>
		<g
   class="st3"
   id="g1170">
			<g
   id="g1112">
				<polygon
   class="st4"
   points="1110.6,549.8 1110.6,549.8 1059.6,549.8 "
   id="polygon1110" />
			</g>
			<g
   id="g1116">
				<polygon
   class="st4"
   points="1110.6,498 1110.6,498 1037.8,498 "
   id="polygon1114" />
			</g>
			<g
   id="g1120">
				<polygon
   class="st5"
   points="1037.8,570.8 1041.8,566.8 1106.6,566.8 1110.6,570.8 "
   id="polygon1118" />
			</g>
			<g
   id="g1124">
				<polygon
   class="st7"
   points="1110.6,570.8 1106.6,566.8 1106.6,553.8 1110.6,549.8 "
   id="polygon1122" />
			</g>
			<g
   id="g1128">
				<polygon
   class="st6"
   points="1110.6,549.8 1106.6,553.8 1055.6,553.8 1059.6,549.8 "
   id="polygon1126" />
			</g>
			<g
   id="g1132">
				<polygon
   class="st5"
   points="1074.1,543 1081.1,539 1094,539 1096.1,543 "
   id="polygon1130" />
			</g>
			<g
   id="g1136">
				<polygon
   class="st10"
   points="1087.9,519.4 1091.9,520.5 1081.1,539 1074.1,543 "
   id="polygon1134" />
			</g>
			<g
   id="g1140">
				<polygon
   class="st11"
   points="1096.1,543 1094,539 1106.6,519.9 1110.6,521.1 "
   id="polygon1138" />
			</g>
			<g
   id="g1144">
				<polygon
   class="st7"
   points="1059.6,549.8 1055.6,553.8 1055.6,514.9 1059.6,518.9 "
   id="polygon1142" />
			</g>
			<g
   id="g1148">
				<polygon
   class="st8"
   points="1087.9,518.9 1091.9,514.9 1091.9,520.5 1087.9,519.4 "
   id="polygon1146" />
			</g>
			<g
   id="g1152">
				<polygon
   class="st5"
   points="1059.6,518.9 1055.6,514.9 1091.9,514.9 1087.9,518.9 "
   id="polygon1150" />
			</g>
			<g
   id="g1156">
				<polygon
   class="st6"
   points="1110.6,498 1106.6,502 1041.8,502 1037.8,498 "
   id="polygon1154" />
			</g>
			<g
   id="g1160">
				<polygon
   class="st7"
   points="1110.6,521.1 1106.6,519.9 1106.6,502 1110.6,498 "
   id="polygon1158" />
			</g>
			<g
   id="g1164">
				<polygon
   class="st0"
   points="1094,539 1081.1,539 1091.9,520.5 1091.9,514.9 1055.6,514.9 1055.6,553.8 1106.6,553.8 1106.6,566.8 1041.8,566.8 1041.8,502 1106.6,502 1106.6,519.9 "
   id="polygon1162" />
			</g>
			<g
   id="g1168">
				<polygon
   class="st8"
   points="1037.8,498 1041.8,502 1041.8,566.8 1037.8,570.8 "
   id="polygon1166" />
			</g>
		</g>
		<g
   class="st3"
   id="g1228">
			<g
   id="g1174">
				<polygon
   class="st4"
   points="1144.9,549.8 1144.9,549.8 1114.3,549.8 "
   id="polygon1172" />
			</g>
			<g
   id="g1178">
				<polygon
   class="st4"
   points="1176.9,498 1176.9,498 1114.3,498 "
   id="polygon1176" />
			</g>
			<g
   id="g1182">
				<polygon
   class="st5"
   points="1114.3,570.8 1118.3,566.8 1172.9,566.8 1176.9,570.8 "
   id="polygon1180" />
			</g>
			<g
   id="g1186">
				<polygon
   class="st8"
   points="1114.3,549.8 1118.3,553.8 1118.3,566.8 1114.3,570.8 "
   id="polygon1184" />
			</g>
			<g
   id="g1190">
				<polygon
   class="st6"
   points="1144.9,549.8 1154.5,553.8 1118.3,553.8 1114.3,549.8 "
   id="polygon1188" />
			</g>
			<g
   id="g1194">
				<polygon
   class="st7"
   points="1176.9,570.8 1172.9,566.8 1172.9,551.5 1176.9,549.8 "
   id="polygon1192" />
			</g>
			<g
   id="g1198">
				<polygon
   class="st0"
   points="1176.9,549.8 1172.9,551.5 1142.7,521.1 1146.7,519.4 "
   id="polygon1196" />
			</g>
			<g
   id="g1202">
				<polygon
   class="st12"
   points="1114.3,518.9 1118.3,517.2 1154.5,553.8 1144.9,549.8 "
   id="polygon1200" />
			</g>
			<g
   id="g1206">
				<polygon
   class="st7"
   points="1146.7,519.4 1142.7,521.1 1142.7,514.9 1146.7,518.9 "
   id="polygon1204" />
			</g>
			<g
   id="g1210">
				<polygon
   class="st5"
   points="1146.7,518.9 1142.7,514.9 1172.9,514.9 1176.9,518.9 "
   id="polygon1208" />
			</g>
			<g
   id="g1214">
				<polygon
   class="st6"
   points="1176.9,498 1172.9,502 1118.3,502 1114.3,498 "
   id="polygon1212" />
			</g>
			<g
   id="g1218">
				<polygon
   class="st7"
   points="1176.9,518.9 1172.9,514.9 1172.9,502 1176.9,498 "
   id="polygon1216" />
			</g>
			<g
   id="g1222">
				<polygon
   class="st0"
   points="1142.7,514.9 1142.7,521.1 1172.9,551.5 1172.9,566.8 1118.3,566.8 1118.3,553.8 1154.5,553.8 1118.3,517.2 1118.3,502 1172.9,502 1172.9,514.9 "
   id="polygon1220" />
			</g>
			<g
   id="g1226">
				<polygon
   class="st8"
   points="1114.3,498 1118.3,502 1118.3,517.2 1114.3,518.9 "
   id="polygon1224" />
			</g>
		</g>
		<g
   class="st3"
   id="g1286">
			<g
   id="g1232">
				<polygon
   class="st4"
   points="1211.8,549.8 1211.8,549.8 1181.2,549.8 "
   id="polygon1230" />
			</g>
			<g
   id="g1236">
				<polygon
   class="st4"
   points="1243.9,498 1243.9,498 1181.2,498 "
   id="polygon1234" />
			</g>
			<g
   id="g1240">
				<polygon
   class="st5"
   points="1181.2,570.8 1185.2,566.8 1239.9,566.8 1243.9,570.8 "
   id="polygon1238" />
			</g>
			<g
   id="g1244">
				<polygon
   class="st8"
   points="1181.2,549.8 1185.2,553.8 1185.2,566.8 1181.2,570.8 "
   id="polygon1242" />
			</g>
			<g
   id="g1248">
				<polygon
   class="st6"
   points="1211.8,549.8 1221.4,553.8 1185.2,553.8 1181.2,549.8 "
   id="polygon1246" />
			</g>
			<g
   id="g1252">
				<polygon
   class="st7"
   points="1243.9,570.8 1239.9,566.8 1239.9,551.5 1243.9,549.8 "
   id="polygon1250" />
			</g>
			<g
   id="g1256">
				<polygon
   class="st0"
   points="1243.9,549.8 1239.9,551.5 1209.6,521.1 1213.6,519.4 "
   id="polygon1254" />
			</g>
			<g
   id="g1260">
				<polygon
   class="st12"
   points="1181.2,518.9 1185.2,517.2 1221.4,553.8 1211.8,549.8 "
   id="polygon1258" />
			</g>
			<g
   id="g1264">
				<polygon
   class="st7"
   points="1213.6,519.4 1209.6,521.1 1209.6,514.9 1213.6,518.9 "
   id="polygon1262" />
			</g>
			<g
   id="g1268">
				<polygon
   class="st5"
   points="1213.6,518.9 1209.6,514.9 1239.9,514.9 1243.9,518.9 "
   id="polygon1266" />
			</g>
			<g
   id="g1272">
				<polygon
   class="st6"
   points="1243.9,498 1239.9,502 1185.2,502 1181.2,498 "
   id="polygon1270" />
			</g>
			<g
   id="g1276">
				<polygon
   class="st7"
   points="1243.9,518.9 1239.9,514.9 1239.9,502 1243.9,498 "
   id="polygon1274" />
			</g>
			<g
   id="g1280">
				<polygon
   class="st0"
   points="1209.6,514.9 1209.6,521.1 1239.9,551.5 1239.9,566.8 1185.2,566.8 1185.2,553.8 1221.4,553.8 1185.2,517.2 1185.2,502 1239.9,502 1239.9,514.9 "
   id="polygon1278" />
			</g>
			<g
   id="g1284">
				<polygon
   class="st8"
   points="1181.2,498 1185.2,502 1185.2,517.2 1181.2,518.9 "
   id="polygon1282" />
			</g>
		</g>
	</g>
</g>
<path
   class="st13"
   d="m 621,89.823667 c -4.6,-4.8 -13.1,-6 -13.1,-6 v 0 c 0,0 -80.9,0 -80.9,0 0.1,0.1 -3.2,-7.4 -3.5,-8.1 -2.6,-5.9 -11.3,-16.4 -20.9,-23.5 -25.3,-18.8 -63.8,-19.6 -66,-19.6 -4.6,0 -32.8,-0.1 -57.6,13.2 -3.9,2.1 -15.7,8.4 -24.1,17.3 -1.2,1.3 -8.8,9.5 -8.8,9.5 0,0 -7.8,-10.4 -7.9,-10.6 -3.3,-4.4 -18.9,-23.4 -40.5,-37.5 C 262.6,1.5236674 225.3,0.22366739 221.4,0.12366739 c -11.3,-0.3 -44,0.4 -77.3,20.99999961 -27.8,17.2 -43.4,40.5 -47.3,48.4 -0.2,0.5 -7,14.4 -7,14.4 0,0 -89.5,0 -89.5,0 0,0 24.2,20.200003 24.2,20.200003 v 0 c 0,0 0,11.8 0,25.8 82.6,16 187.2,25.6 300.9,25.6 113.7,0 218.3,-9.6 300.9,-25.6 0,-18.2 0,-27.6 0,-27.6 v 0 c -0.1,-0.1 -1,-8.000003 -5.3,-12.500003 z"
   id="path1292" />
</svg>
